<svg xmlns="http://www.w3.org/2000/svg" version="1.1" xmlns:xlink="http://www.w3.org/1999/xlink" xmlns:svgjs="http://svgjs.dev/svgjs" width="1440" height="560" preserveAspectRatio="none" viewBox="0 0 1440 560"><g mask="url(&quot;#SvgjsMask1161&quot;)" fill="none"><rect width="1440" height="560" x="0" y="0" fill="#0e2a47"></rect><rect width="101.2" height="101.2" clip-path="url(&quot;#SvgjsClipPath1162&quot;)" x="1110.17" y="497.33" fill="url(&quot;#SvgjsPattern1163&quot;)" transform="rotate(219.71, 1160.77, 547.93)"></rect><path d="M83.28 310.54L81.33 323.19 68.55 324.07 66.6 336.73 53.83 337.6 51.88 350.26 39.1 351.14M77.87 304.65L75.92 317.3 63.14 318.18 61.19 330.84 48.41 331.71 46.46 344.37 33.69 345.24" stroke="rgba(66, 90, 69, 1)" stroke-width="1.89" stroke-dasharray="3, 3"></path><path d="M1072.6 260.42L1076.31 272.68 1065.17 278.99 1068.88 291.25 1057.74 297.56 1061.45 309.82 1050.3 316.13" stroke="rgba(3, 123, 11, 0.73)" stroke-width="1.84" stroke-dasharray="4, 4"></path><path d="M935.97 320.46 L1004.29 359.14L1003.3213820303571 306.60861796964286z" fill="rgba(3, 123, 11, 0.73)"></path><rect width="152" height="152" clip-path="url(&quot;#SvgjsClipPath1164&quot;)" x="333.82" y="39.62" fill="url(&quot;#SvgjsPattern1165&quot;)" transform="rotate(52.92, 409.82, 115.62)"></rect><path d="M653.03 405.56 L609.52 513.93L677.6050757856196 506.0750757856196z" fill="rgba(66, 90, 69, 1)"></path><path d="M1405.1499999999999 669.88 L1513.23 546.65L1546.065845614612 695.1408456146121z" stroke="rgba(3, 123, 11, 0.73)" stroke-width="2.05" stroke-dasharray="4, 4"></path><path d="M1438.77 467.65a5.6 5.6 0 1 0-9.32 6.21 5.6 5.6 0 1 0 9.32-6.21zM1425.45 476.52a5.6 5.6 0 1 0-9.32 6.21 5.6 5.6 0 1 0 9.32-6.21zM1412.14 485.39a5.6 5.6 0 1 0-9.32 6.21 5.6 5.6 0 1 0 9.32-6.21zM1398.82 494.26a5.6 5.6 0 1 0-9.32 6.21 5.6 5.6 0 1 0 9.32-6.21zM1456.53 436.59a5.6 5.6 0 1 0-9.32 6.21 5.6 5.6 0 1 0 9.32-6.21zM1443.22 445.46a5.6 5.6 0 1 0-9.33 6.21 5.6 5.6 0 1 0 9.33-6.21zM1429.9 454.33a5.6 5.6 0 1 0-9.32 6.21 5.6 5.6 0 1 0 9.32-6.21zM1416.58 463.2a5.6 5.6 0 1 0-9.32 6.21 5.6 5.6 0 1 0 9.32-6.21z" stroke="rgba(3, 123, 11, 0.73)" stroke-width="1.79" stroke-dasharray="2, 2"></path><rect width="216" height="216" clip-path="url(&quot;#SvgjsClipPath1166&quot;)" x="932.86" y="441.73" fill="url(&quot;#SvgjsPattern1167&quot;)" transform="rotate(98.16, 1040.86, 549.73)"></rect><rect width="97.28" height="97.28" clip-path="url(&quot;#SvgjsClipPath1168&quot;)" x="346.13" y="35.88" fill="url(&quot;#SvgjsPattern1169&quot;)" transform="rotate(225.34, 394.77, 84.52)"></rect><rect width="258.72" height="258.72" clip-path="url(&quot;#SvgjsClipPath1170&quot;)" x="1006.02" y="162.28" fill="url(&quot;#SvgjsPattern1171&quot;)" transform="rotate(20.36, 1135.38, 291.64)"></rect><path d="M428.32 339.51L438.74 346.95 433.77 358.75 444.19 366.19 439.22 378 449.65 385.44 444.67 397.24M420.62 341.69L431.04 349.13 426.07 360.93 436.5 368.37 431.53 380.18 441.95 387.62 436.98 399.42M412.92 343.87L423.35 351.31 418.38 363.11 428.8 370.56 423.83 382.36 434.25 389.8 429.28 401.6" stroke="rgba(66, 90, 69, 1)" stroke-width="1" stroke-dasharray="3, 2"></path></g><defs><mask id="SvgjsMask1161"><rect width="1440" height="560" fill="#ffffff"></rect></mask><pattern x="0" y="0" width="101.2" height="10.12" patternUnits="userSpaceOnUse" id="SvgjsPattern1163"><rect width="101.2" height="5.06" x="0" y="0" fill="rgba(211, 183, 20, 0.88)"></rect><rect width="101.2" height="5.06" x="0" y="5.06" fill="rgba(0, 0, 0, 0)"></rect></pattern><clipPath id="SvgjsClipPath1162"><circle r="25.3" cx="1160.77" cy="547.93"></circle></clipPath><pattern x="0" y="0" width="152" height="7.6" patternUnits="userSpaceOnUse" id="SvgjsPattern1165"><rect width="152" height="3.8" x="0" y="0" fill="rgba(3, 123, 11, 0.73)"></rect><rect width="152" height="3.8" x="0" y="3.8" fill="rgba(0, 0, 0, 0)"></rect></pattern><clipPath id="SvgjsClipPath1164"><circle r="38" cx="409.82" cy="115.62"></circle></clipPath><pattern x="0" y="0" width="6" height="6" patternUnits="userSpaceOnUse" id="SvgjsPattern1167"><path d="M3 1L3 5M1 3L5 3" stroke="rgba(211, 183, 20, 0.88)" fill="none" stroke-width="1.91"></path></pattern><clipPath id="SvgjsClipPath1166"><circle r="54" cx="1040.86" cy="549.73"></circle></clipPath><pattern x="0" y="0" width="6.08" height="6.08" patternUnits="userSpaceOnUse" id="SvgjsPattern1169"><path d="M0 6.08L3.04 0L6.08 6.08" stroke="rgba(66, 90, 69, 1)" fill="none"></path></pattern><clipPath id="SvgjsClipPath1168"><circle r="24.32" cx="394.77" cy="84.52"></circle></clipPath><pattern x="0" y="0" width="6.16" height="6.16" patternUnits="userSpaceOnUse" id="SvgjsPattern1171"><path d="M3.08 1L3.08 5.16M1 3.08L5.16 3.08" stroke="rgba(3, 123, 11, 0.73)" fill="none" stroke-width="1.81"></path></pattern><clipPath id="SvgjsClipPath1170"><circle r="64.68" cx="1135.38" cy="291.64"></circle></clipPath></defs></svg>