<svg xmlns="http://www.w3.org/2000/svg" version="1.1" xmlns:xlink="http://www.w3.org/1999/xlink" xmlns:svgjs="http://svgjs.dev/svgjs" width="1440" height="560" preserveAspectRatio="none" viewBox="0 0 1440 560"><g mask="url(&quot;#SvgjsMask1162&quot;)" fill="none"><rect width="1440" height="560" x="0" y="0" fill="#0e2a47"></rect><rect width="187.2" height="187.2" clip-path="url(&quot;#SvgjsClipPath1163&quot;)" x="1194.27" y="28.37" fill="url(&quot;#SvgjsPattern1164&quot;)" transform="rotate(132.76, 1287.87, 121.97)"></rect><circle r="46.666666666666664" cx="1063.02" cy="111.59" fill="rgba(3, 123, 11, 0.86)"></circle><path d="M838.73 546.78L827 541.63 829.44 529.06 817.71 523.92 820.15 511.35 808.42 506.21 810.86 493.64" stroke="rgba(3, 123, 11, 0.86)" stroke-width="2.58" stroke-dasharray="3, 2"></path><path d="M277.44 405.33000000000004 L229.26 362.97L211.10973065607342 426.3902693439266z" fill="rgba(211, 183, 20, 0.88)"></path><circle r="76.9983310848905" cx="288.24" cy="74.39" stroke="rgba(66, 90, 69, 1)" stroke-width="1"></circle><path d="M563.34 391.04L576.01 392.97 576.91 405.74 589.57 407.67 590.47 420.44 603.13 422.36 604.03 435.14M557.47 396.47L570.13 398.39 571.03 411.17 583.69 413.09 584.59 425.87 597.25 427.79 598.15 440.56M551.59 401.89L564.25 403.82 565.15 416.59 577.81 418.52 578.71 431.29 591.37 433.21 592.28 445.99" stroke="rgba(211, 183, 20, 0.88)" stroke-width="1.52" stroke-dasharray="4, 4"></path><circle r="46.666666666666664" cx="1197.94" cy="514.71" stroke="rgba(211, 183, 20, 0.88)" stroke-width="1"></circle><path d="M468.90999999999997 381.72 L489.1 514.23L388.7113781635796 538.2686218364205z" stroke="rgba(66, 90, 69, 1)" stroke-width="2.38"></path><path d="M1481.62 192.07 L1335.69 325.72L1530.0646528658071 380.3046528658071z" stroke="rgba(66, 90, 69, 1)" stroke-width="2.07" stroke-dasharray="3, 2"></path><rect width="324" height="324" clip-path="url(&quot;#SvgjsClipPath1165&quot;)" x="917.23" y="138.37" fill="url(&quot;#SvgjsPattern1166&quot;)" transform="rotate(149.54, 1079.23, 300.37)"></rect><rect width="168" height="168" clip-path="url(&quot;#SvgjsClipPath1167&quot;)" x="840.85" y="67.72" fill="url(&quot;#SvgjsPattern1168&quot;)" transform="rotate(45.44, 924.85, 151.72)"></rect><path d="M692.22 415.4a5.6 5.6 0 1 0-10.42 4.09 5.6 5.6 0 1 0 10.42-4.09zM677.33 421.24a5.6 5.6 0 1 0-10.43 4.09 5.6 5.6 0 1 0 10.43-4.09zM662.43 427.08a5.6 5.6 0 1 0-10.43 4.09 5.6 5.6 0 1 0 10.43-4.09zM647.53 432.92a5.6 5.6 0 1 0-10.42 4.08 5.6 5.6 0 1 0 10.42-4.08z" fill="rgba(3, 123, 11, 0.86)"></path></g><defs><mask id="SvgjsMask1162"><rect width="1440" height="560" fill="#ffffff"></rect></mask><pattern x="0" y="0" width="7.8" height="7.8" patternUnits="userSpaceOnUse" id="SvgjsPattern1164"><path d="M3.9 1L3.9 6.8M1 3.9L6.8 3.9" stroke="rgba(211, 183, 20, 0.88)" fill="none" stroke-width="1"></path></pattern><clipPath id="SvgjsClipPath1163"><circle r="46.8" cx="1287.87" cy="121.97"></circle></clipPath><pattern x="0" y="0" width="6" height="6" patternUnits="userSpaceOnUse" id="SvgjsPattern1166"><path d="M3 1L3 5M1 3L5 3" stroke="rgba(3, 123, 11, 0.86)" fill="none" stroke-width="1"></path></pattern><clipPath id="SvgjsClipPath1165"><circle r="81" cx="1079.23" cy="300.37"></circle></clipPath><pattern x="0" y="0" width="6" height="6" patternUnits="userSpaceOnUse" id="SvgjsPattern1168"><path d="M3 1L3 5M1 3L5 3" stroke="rgba(66, 90, 69, 1)" fill="none" stroke-width="1"></path></pattern><clipPath id="SvgjsClipPath1167"><circle r="42" cx="924.85" cy="151.72"></circle></clipPath></defs></svg>